{"title":"COG Child Of God HDRip.avi","uid":8964686,"size":468091246,"categoryP":"video","categoryS":"movies","magnet":"?xt=urn:btih:aa340bef08a0e39ab6553345cb3c9962eb9a9159&amp;dn=COG+Child+Of+God+HDRip.avi&amp;tr=udp%3A%2F%2Ftracker.openbittorrent.com%3A80&amp;tr=udp%3A%2F%2Fopen.demonii.com%3A1337&amp;tr=udp%3A%2F%2Ftracker.coppersurfer.tk%3A6969&amp;tr=udp%3A%2F%2Fexodus.desync.com%3A6969","seeders":3,"leechers":0,"uploader":"globeplus","files":-1,"time":1380191257,"description":"COG Child Of God HDRip.avi\n\nFormat                                   : AVI\nFormat/Info                              : Audio Video Interleave\nFile size                                : 446 MiB\nDuration                                 : 1h 27mn\nOverall bit rate                         : 711 Kbps\nWriting application                      : Lavf52.57.1\nWriting library                          : VirtualDub build 32842/release\n\nVideo\n\nID                                       : 0\nFormat                                   : MPEG-4 Visual\nFormat profile                           : Simple@L3\nFormat settings, BVOP                    : 2\nFormat settings, QPel                    : No\nFormat settings, GMC                     : No warppoints\nFormat settings, Matrix                  : Default (H.263)\nMuxing mode                              : Packed bitstream\nCodec ID                                 : XVID\nCodec ID/Hint                            : XviD\nDuration                                 : 1h 27mn\nBit rate                                 : 570 Kbps\nWidth                                    : 320 pixels\nHeight                                   : 240 pixels\nDisplay aspect ratio                     : 4:3\nFrame rate                               : 23.000 fps\nColor space                              : YUV\nChroma subsampling                       : 4:2:0\nBit depth                                : 8 bits\nScan type                                : Progressive\nCompression mode                         : Lossy\nBits/(Pixel*Frame)                       : 0.323\nStream size                              : 358 MiB (80%)\nWriting library                          : XviD 1.0.2 (UTC 2004-08-29)\n\nAudio\n\nID                                       : 1\nFormat                                   : MPEG Audio\nFormat version                           : Version 1\nFormat profile                           : Layer 3\nMode                                     : Joint stereo\nMode extension                           : MS Stereo\nCodec ID                                 : 55\nCodec ID/Hint                            : MP3\nDuration                                 : 1h 27mn\nBit rate mode                            : Constant\nBit rate                                 : 128 Kbps\nChannel(s)                               : 2 channels\nSampling rate                            : 48.0 KHz\nCompression mode                         : Lossy\nStream size                              : 80.4 MiB (18%)\nAlignment                                : Aligned on interleaves\nInterleave, duration                     : 24 ms (0.55 video frame)\nInterleave, preload duration             : 504 ms\n\n\n\nPlot\n\nBased on David Sedaris' autobiographical short story, C.O.G. (which stands for Child of God) follows Samuel (Jonathan Groff), who attempts to immerse himself in &quot;the real world,&quot; and go &quot;off the grid&quot; following his graduation from Yale to work at an apple farm under an alias. Out of his element and failing to fit in amongst the town's migrant workers and deeply religious locals, Samuel begins a journey that will take him deep into unfamiliar, awkward, and sometimes humorous territory as he encounters would-be benefactors and friends alike.\n\n\n\n* enjoy ...\n\n","torrent":{"xt":"urn:btih:aa340bef08a0e39ab6553345cb3c9962eb9a9159","amp;dn":"COG+Child+Of+God+HDRip.avi","amp;tr":["udp%3A%2F%2Ftracker.openbittorrent.com%3A80","udp%3A%2F%2Fopen.demonii.com%3A1337","udp%3A%2F%2Ftracker.coppersurfer.tk%3A6969","udp%3A%2F%2Fexodus.desync.com%3A6969"],"infoHash":"aa340bef08a0e39ab6553345cb3c9962eb9a9159","infoHashBuffer":{"type":"Buffer","data":[170,52,11,239,8,160,227,154,182,85,51,69,203,60,153,98,235,154,145,89]},"announce":[],"urlList":[]}}